# xmcd
#
# Track frame offsets:
#	150
#	14252
#	40869
#	65932
#	87162
#	117394
#	160930
#	184270
#
# Disc length: 2746 seconds
#
# Revision: 0
# Processed by: cddbd v1.5.2PL0 Copyright (c) Steve Scherf et al.
# Submitted via: EasyCDDAExtractor 11.5.3.1
#
DISCID=690ab808
DTITLE=The Blues Project - Live at the Matrix Septeptember 1966
DYEAR=1966
DGENRE=Blues
TTITLE0=Cheryl's Going Home
TTITLE1=You Can't Catch Me
TTITLE2=Shake That Thing
TTITLE3=Catch the Wind
TTITLE4=You Can't Judge a Book
TTITLE5=Flute Thing
TTITLE6=Hoochie Coochie Man
TTITLE7=If You Don't Come Back
EXTD=
EXTT0=
EXTT1=
EXTT2=
EXTT3=
EXTT4=
EXTT5=
EXTT6=
EXTT7=
PLAYORDER=
